<?xml version="1.0"?>
<svg xmlns="http://www.w3.org/2000/svg" id="Layer_1" enable-background="new 0 0 256 256" height="512px" viewBox="0 0 256 256" width="512px" class=""><g><path d="m161.332 162.835c4.36 0 7.906 3.803 7.906 8.478s-3.546 8.477-7.906 8.477h-132.436c-3.255 0-5.893 2.638-5.893 5.893s2.638 5.893 5.893 5.893h132.437c10.859 0 19.693-9.09 19.693-20.264 0-8.788-5.475-16.267-13.092-19.068-1.73 6.155-7.398 10.59-13.942 10.59z" fill="#a4c9ff" data-original="#A4C9FF"/><circle cx="148.609" cy="213.517" fill="#4671c6" r="21.941" data-original="#4671C6" class=""/><path d="m148.609 225.884c-6.819 0-12.367-5.548-12.367-12.367s5.548-12.367 12.367-12.367c6.818 0 12.366 5.548 12.366 12.367s-5.547 12.367-12.366 12.367z" fill="#f9cfcf" data-original="#F9CFCF" class="" data-old_color="#f9cfcf" style="fill:#F9CFCF"/><path d="m148.608 237.458c-13.201 0-23.94-10.74-23.94-23.941s10.739-23.941 23.94-23.941 23.941 10.74 23.941 23.941-10.739 23.941-23.941 23.941zm0-43.882c-10.995 0-19.94 8.945-19.94 19.941s8.945 19.941 19.94 19.941c10.996 0 19.941-8.945 19.941-19.941s-8.945-19.941-19.941-19.941z" fill="#3762cc" data-original="#3762CC" class=""/><circle cx="56.136" cy="213.517" fill="#4671c6" r="21.941" data-original="#4671C6" class=""/><path d="m56.136 225.884c-6.819 0-12.367-5.548-12.367-12.367s5.548-12.367 12.367-12.367c6.818 0 12.366 5.548 12.366 12.367s-5.547 12.367-12.366 12.367z" fill="#f9cfcf" data-original="#F9CFCF" class="" data-old_color="#f9cfcf" style="fill:#F9CFCF"/><path d="m56.136 237.458c-13.201 0-23.94-10.74-23.94-23.941s10.74-23.941 23.94-23.941c13.201 0 23.941 10.74 23.941 23.941s-10.74 23.941-23.941 23.941zm0-43.882c-10.995 0-19.94 8.945-19.94 19.941s8.945 19.941 19.94 19.941c10.996 0 19.941-8.945 19.941-19.941s-8.946-19.941-19.941-19.941z" fill="#3762cc" data-original="#3762CC" class=""/><path d="m148.608 237.458c-13.201 0-23.94-10.74-23.94-23.941s10.739-23.941 23.94-23.941 23.941 10.74 23.941 23.941-10.739 23.941-23.941 23.941zm0-43.882c-10.995 0-19.94 8.945-19.94 19.941s8.945 19.941 19.94 19.941c10.996 0 19.941-8.945 19.941-19.941s-8.945-19.941-19.941-19.941z" fill="#3762cc" data-original="#3762CC" class=""/><path d="m148.608 237.458c-13.201 0-23.94-10.74-23.94-23.941s10.739-23.941 23.94-23.941 23.941 10.74 23.941 23.941-10.739 23.941-23.941 23.941zm0-43.882c-10.995 0-19.94 8.945-19.94 19.941s8.945 19.941 19.94 19.941c10.996 0 19.941-8.945 19.941-19.941s-8.945-19.941-19.941-19.941z" fill="#3762cc" data-original="#3762CC" class=""/><path d="m56.136 237.458c-13.201 0-23.94-10.74-23.94-23.941s10.74-23.941 23.94-23.941c13.201 0 23.941 10.74 23.941 23.941s-10.74 23.941-23.941 23.941zm0-43.882c-10.995 0-19.94 8.945-19.94 19.941s8.945 19.941 19.94 19.941c10.996 0 19.941-8.945 19.941-19.941s-8.946-19.941-19.941-19.941z" fill="#3762cc" data-original="#3762CC" class=""/><path d="m56.136 237.458c-13.201 0-23.94-10.74-23.94-23.941s10.74-23.941 23.94-23.941c13.201 0 23.941 10.74 23.941 23.941s-10.74 23.941-23.941 23.941zm0-43.882c-10.995 0-19.94 8.945-19.94 19.941s8.945 19.941 19.94 19.941c10.996 0 19.941-8.945 19.941-19.941s-8.946-19.941-19.941-19.941z" fill="#3762cc" data-original="#3762CC" class=""/><path d="m62.587 191.576v16.435c0 2.969-2.407 5.376-5.376 5.376h-1.544c-2.293 0-4.334-1.455-5.082-3.622l-6.277-18.188h18.279z" fill="#a4c9ff" data-original="#A4C9FF"/><path d="m155.06 191.576v16.435c0 2.969-2.407 5.376-5.376 5.376h-1.544c-2.293 0-4.334-1.455-5.082-3.622l-6.277-18.188h18.279z" fill="#a4c9ff" data-original="#A4C9FF"/><path d="m57.211 215.387h-1.544c-3.145 0-5.947-1.997-6.973-4.97l-6.276-18.189c-.211-.611-.113-1.287.262-1.813.375-.527.982-.839 1.628-.839h18.279c1.104 0 2 .896 2 2v16.435c0 4.067-3.309 7.376-7.376 7.376zm-10.097-21.811 5.361 15.536c.47 1.36 1.752 2.275 3.192 2.275h1.544c1.862 0 3.376-1.515 3.376-3.376v-14.435z" fill="#3762cc" data-original="#3762CC" class=""/><path d="m149.685 215.387h-1.545c-3.145 0-5.947-1.998-6.973-4.97l-6.276-18.188c-.211-.611-.113-1.287.262-1.813.376-.527.982-.839 1.629-.839h18.279c1.104 0 2 .896 2 2v16.435c0 4.066-3.309 7.375-7.376 7.375zm-10.098-21.811 5.361 15.536c.47 1.361 1.752 2.275 3.191 2.275h1.545c1.861 0 3.376-1.515 3.376-3.376v-14.435z" fill="#3762cc" data-original="#3762CC" class=""/><path d="m241.285 41.758h-39.316c-2.604 0-4.715-2.111-4.715-4.715v-11.786c0-2.604 2.111-4.715 4.715-4.715h39.316c2.604 0 4.715 2.111 4.715 4.715v11.787c0 2.603-2.111 4.714-4.715 4.714z" fill="#f9a7a7" data-original="#F9A7A7" class="active-path" data-old_color="#f9a7a7" style="fill:#3F00BF"/><path d="m241.285 41.758h-39.316c-2.604 0-4.715-2.111-4.715-4.715v-11.786c0-2.604 2.111-4.715 4.715-4.715h39.316c2.604 0 4.715 2.111 4.715 4.715v11.787c0 2.603-2.111 4.714-4.715 4.714z" fill="#f9a7a7" data-original="#F9A7A7" class="active-path" data-old_color="#f9a7a7" style="fill:#3F00BF"/><path d="m183.227 41.56c.356-2.575 2.422-4.517 4.804-4.517h9.223v-11.786h-9.223c-8.238 0-15.323 6.315-16.481 14.689l-1.375 9.946h4.955c1.7 0 3.317.734 4.436 2.014 1.12 1.28 1.631 2.981 1.404 4.666z" fill="#a4c9ff" data-original="#A4C9FF"/><g fill="#3762cc"><path d="m180.976 58.573c-.095 0-.189-.007-.285-.021-1.087-.155-1.847-1.158-1.7-2.247.15-1.114-.188-2.237-.927-3.082-.74-.847-1.809-1.332-2.932-1.332h-4.955c-.578 0-1.128-.25-1.508-.686s-.553-1.015-.474-1.588l1.375-9.946c1.294-9.358 9.23-16.416 18.462-16.416h9.223c1.104 0 2 .896 2 2v11.787c0 1.104-.896 2-2 2h-9.223c-1.39 0-2.604 1.2-2.823 2.79-.001.008-.003.016-.004.023l-2.255 15.012c-.148.993-1.001 1.706-1.974 1.706zm-8.503-10.68h2.659c1.779 0 3.491.601 4.869 1.681l1.247-8.299c.496-3.553 3.411-6.231 6.784-6.231h7.223v-7.787h-7.223c-7.245 0-13.479 5.573-14.499 12.963zm10.755-6.333h.01z" data-original="#000000" class="" style="fill:#000000"/><path d="m241.285 43.758h-39.316c-3.702 0-6.714-3.012-6.714-6.715v-11.786c0-3.703 3.012-6.715 6.714-6.715h39.316c3.702 0 6.715 3.012 6.715 6.715v11.787c0 3.702-3.013 6.714-6.715 6.714zm-39.316-21.216c-1.496 0-2.714 1.218-2.714 2.715v11.787c0 1.497 1.218 2.715 2.714 2.715h39.316c1.497 0 2.715-1.218 2.715-2.715v-11.787c0-1.497-1.218-2.715-2.715-2.715z" data-original="#000000" class="" style="fill:#000000"/><path d="m57.211 215.387h-1.544c-3.145 0-5.947-1.997-6.973-4.97l-6.276-18.189c-.211-.611-.113-1.287.262-1.813.375-.527.982-.839 1.628-.839h18.279c1.104 0 2 .896 2 2v16.435c0 4.067-3.309 7.376-7.376 7.376zm-10.097-21.811 5.361 15.536c.47 1.36 1.752 2.275 3.192 2.275h1.544c1.862 0 3.376-1.515 3.376-3.376v-14.435z" data-original="#000000" class="" style="fill:#000000"/><path d="m149.685 215.387h-1.545c-3.145 0-5.947-1.998-6.973-4.97l-6.276-18.188c-.211-.611-.113-1.287.262-1.813.376-.527.982-.839 1.629-.839h18.279c1.104 0 2 .896 2 2v16.435c0 4.066-3.309 7.375-7.376 7.375zm-10.098-21.811 5.361 15.536c.47 1.361 1.752 2.275 3.191 2.275h1.545c1.861 0 3.376-1.515 3.376-3.376v-14.435z" data-original="#000000" class="" style="fill:#000000"/><path d="m57.211 215.387h-1.544c-3.145 0-5.947-1.997-6.973-4.97l-6.276-18.189c-.211-.611-.113-1.287.262-1.813.375-.527.982-.839 1.628-.839h18.279c1.104 0 2 .896 2 2v16.435c0 4.067-3.309 7.376-7.376 7.376zm-10.097-21.811 5.361 15.536c.47 1.36 1.752 2.275 3.192 2.275h1.544c1.862 0 3.376-1.515 3.376-3.376v-14.435z" data-original="#000000" class="" style="fill:#000000"/><path d="m149.685 215.387h-1.545c-3.145 0-5.947-1.998-6.973-4.97l-6.276-18.188c-.211-.611-.113-1.287.262-1.813.376-.527.982-.839 1.629-.839h18.279c1.104 0 2 .896 2 2v16.435c0 4.066-3.309 7.375-7.376 7.375zm-10.098-21.811 5.361 15.536c.47 1.361 1.752 2.275 3.191 2.275h1.545c1.861 0 3.376-1.515 3.376-3.376v-14.435z" data-original="#000000" class="" style="fill:#000000"/><path d="m241.285 43.758h-39.316c-3.702 0-6.714-3.012-6.714-6.715v-11.786c0-3.703 3.012-6.715 6.714-6.715h39.316c3.702 0 6.715 3.012 6.715 6.715v11.787c0 3.702-3.013 6.714-6.715 6.714zm-39.316-21.216c-1.496 0-2.714 1.218-2.714 2.715v11.787c0 1.497 1.218 2.715 2.714 2.715h39.316c1.497 0 2.715-1.218 2.715-2.715v-11.787c0-1.497-1.218-2.715-2.715-2.715z" data-original="#000000" class="" style="fill:#000000"/><path d="m241.285 43.758h-39.316c-3.702 0-6.714-3.012-6.714-6.715v-11.786c0-3.703 3.012-6.715 6.714-6.715h39.316c3.702 0 6.715 3.012 6.715 6.715v11.787c0 3.702-3.013 6.714-6.715 6.714zm-39.316-21.216c-1.496 0-2.714 1.218-2.714 2.715v11.787c0 1.497 1.218 2.715 2.714 2.715h39.316c1.497 0 2.715-1.218 2.715-2.715v-11.787c0-1.497-1.218-2.715-2.715-2.715z" data-original="#000000" class="" style="fill:#000000"/><path d="m180.976 58.573c-.095 0-.189-.007-.285-.021-1.087-.155-1.847-1.158-1.7-2.247.15-1.114-.188-2.237-.927-3.082-.74-.847-1.809-1.332-2.932-1.332h-4.955c-.578 0-1.128-.25-1.508-.686s-.553-1.015-.474-1.588l1.375-9.946c1.294-9.358 9.23-16.416 18.462-16.416h9.223c1.104 0 2 .896 2 2v11.787c0 1.104-.896 2-2 2h-9.223c-1.39 0-2.604 1.2-2.823 2.79-.001.008-.003.016-.004.023l-2.255 15.012c-.148.993-1.001 1.706-1.974 1.706zm-8.503-10.68h2.659c1.779 0 3.491.601 4.869 1.681l1.247-8.299c.496-3.553 3.411-6.231 6.784-6.231h7.223v-7.787h-7.223c-7.245 0-13.479 5.573-14.499 12.963zm10.755-6.333h.01z" data-original="#000000" class="" style="fill:#000000"/><path d="m180.976 58.573c-.095 0-.189-.007-.285-.021-1.087-.155-1.847-1.158-1.7-2.247.15-1.114-.188-2.237-.927-3.082-.74-.847-1.809-1.332-2.932-1.332h-4.955c-.578 0-1.128-.25-1.508-.686s-.553-1.015-.474-1.588l1.375-9.946c1.294-9.358 9.23-16.416 18.462-16.416h9.223c1.104 0 2 .896 2 2v11.787c0 1.104-.896 2-2 2h-9.223c-1.39 0-2.604 1.2-2.823 2.79-.001.008-.003.016-.004.023l-2.255 15.012c-.148.993-1.001 1.706-1.974 1.706zm-8.503-10.68h2.659c1.779 0 3.491.601 4.869 1.681l1.247-8.299c.496-3.553 3.411-6.231 6.784-6.231h7.223v-7.787h-7.223c-7.245 0-13.479 5.573-14.499 12.963zm10.755-6.333h.01z" data-original="#000000" class="" style="fill:#000000"/><path d="m241.285 43.758h-39.316c-3.702 0-6.714-3.012-6.714-6.715v-11.786c0-3.703 3.012-6.715 6.714-6.715h39.316c3.702 0 6.715 3.012 6.715 6.715v11.787c0 3.702-3.013 6.714-6.715 6.714zm-39.316-21.216c-1.496 0-2.714 1.218-2.714 2.715v11.787c0 1.497 1.218 2.715 2.714 2.715h39.316c1.497 0 2.715-1.218 2.715-2.715v-11.787c0-1.497-1.218-2.715-2.715-2.715z" data-original="#000000" class="" style="fill:#000000"/></g><path d="m179.568 51.907c-1.119-1.28-2.736-2.014-4.436-2.014h-154.937c-2.941 0-5.738 1.269-7.674 3.483s-2.822 5.155-2.43 8.072l11.96 88.826c.963 7.161 7.14 12.562 14.366 12.562h21.393 96.181c7.226 0 13.401-5.4 14.365-12.561l12.617-93.701c.226-1.687-.285-3.387-1.405-4.667zm-157.553 9.772h22.782l3.394 38.791h-20.953zm13.778 89.369c-1.35 0-2.505-1.009-2.685-2.347l-4.908-36.444h20.397l3.394 38.791zm53.202 0h-25.171l-3.394-38.791h28.565zm.625-50.577h-29.596l-3.394-38.792h32.99zm36.332 50.577h-25.171v-38.791h28.564zm4.425-50.577h-29.595v-38.792h32.989zm25.673 48.23c-.181 1.338-1.334 2.347-2.684 2.347h-15.582l3.393-38.791h19.779zm6.494-48.23h-20.335l3.394-38.791h22.164z" fill="#a4c9ff" data-original="#A4C9FF"/><path d="m153.991 164.834h-117.574c-8.224 0-15.251-6.146-16.348-14.295l-11.96-88.825c-.47-3.488.59-7.007 2.906-9.656 2.316-2.647 5.662-4.166 9.179-4.166h154.937c2.277 0 4.443.983 5.942 2.698 1.499 1.713 2.185 3.99 1.881 6.249l-12.616 93.702c-1.096 8.148-8.124 14.293-16.347 14.293zm-133.796-112.941c-2.364 0-4.612 1.021-6.168 2.8-1.557 1.779-2.269 4.145-1.953 6.488l11.96 88.825c.831 6.173 6.154 10.829 12.384 10.829h117.574c6.229 0 11.553-4.655 12.383-10.828l12.616-93.702c.15-1.114-.188-2.237-.927-3.081 0 0 0 0-.001-.001-.739-.846-1.808-1.331-2.931-1.331h-154.937zm133.171 101.155h-15.582c-.561 0-1.096-.235-1.475-.649-.379-.413-.566-.967-.518-1.525l3.394-38.791c.09-1.033.955-1.826 1.992-1.826h19.779c.577 0 1.126.249 1.506.684.38.434.554 1.011.477 1.583l-4.906 36.445c-.314 2.325-2.32 4.079-4.667 4.079zm-13.399-4h13.399c.348 0 .656-.27.702-.614l4.602-34.177h-15.659zm16.084-.347h.01zm-30.099 4.347h-25.17c-1.104 0-2-.896-2-2v-38.791c0-1.104.896-2 2-2h28.564c.561 0 1.096.235 1.475.649s.566.967.518 1.525l-3.394 38.791c-.091 1.033-.956 1.826-1.993 1.826zm-23.171-4h21.338l3.044-34.791h-24.382zm-13.786 4h-25.171c-1.037 0-1.902-.792-1.992-1.826l-3.394-38.791c-.049-.559.139-1.112.518-1.525.379-.414.914-.649 1.475-.649h28.564c1.104 0 2 .896 2 2v38.791c0 1.104-.896 2-2 2zm-23.339-4h21.338v-34.791h-24.381zm-13.665 4h-16.199c-2.347 0-4.353-1.754-4.667-4.08l-4.907-36.444c-.077-.572.097-1.149.477-1.583.379-.435.928-.684 1.505-.684h20.397c1.037 0 1.902.792 1.992 1.826l3.394 38.791c.049.559-.139 1.112-.518 1.525-.378.413-.913.649-1.474.649zm-21.504-38.791 4.602 34.177c.046.344.355.614.703.614h14.016l-3.044-34.791zm132.057-11.786h-20.335c-.561 0-1.096-.235-1.475-.649-.379-.413-.566-.967-.518-1.525l3.394-38.792c.09-1.033.955-1.826 1.992-1.826h22.164c.577 0 1.126.249 1.506.684.38.434.554 1.011.477 1.583l-5.223 38.792c-.133.992-.981 1.733-1.982 1.733zm-18.152-4h16.403l4.685-34.792h-18.044zm-14.015 4h-29.596c-1.104 0-2-.896-2-2v-38.792c0-1.104.896-2 2-2h32.989c.561 0 1.096.235 1.475.649.379.413.566.967.518 1.525l-3.394 38.792c-.09 1.033-.955 1.826-1.992 1.826zm-27.596-4h25.763l3.043-34.792h-28.807v34.792zm-13.161 4h-29.597c-1.037 0-1.902-.792-1.992-1.826l-3.394-38.792c-.049-.559.139-1.112.518-1.525.379-.414.914-.649 1.475-.649h32.99c1.104 0 2 .896 2 2v38.792c0 1.104-.896 2-2 2zm-27.764-4h25.764v-34.792h-28.808zm-13.665 4h-20.953c-1.001 0-1.849-.741-1.982-1.733l-5.223-38.792c-.077-.572.097-1.149.477-1.583.379-.435.928-.684 1.505-.684h22.782c1.037 0 1.902.792 1.992 1.826l3.394 38.792c.049.559-.139 1.112-.518 1.525-.378.413-.914.649-1.474.649zm-19.205-4h17.022l-3.044-34.792h-18.662z" fill="#3762cc" data-original="#3762CC" class=""/><path d="m161.332 193.576h-132.436c-4.352 0-7.893-3.541-7.893-7.893s3.541-7.893 7.893-7.893h132.437c3.257 0 5.907-2.906 5.907-6.478s-2.65-6.478-5.907-6.478h-7.341c-1.104 0-2-.896-2-2s.896-2 2-2c5.564 0 10.506-3.755 12.017-9.131.151-.537.52-.986 1.016-1.24.498-.254 1.077-.289 1.601-.096 8.614 3.168 14.401 11.585 14.401 20.945-.002 12.277-9.733 22.264-21.695 22.264zm-132.436-11.786c-2.146 0-3.893 1.747-3.893 3.893s1.747 3.893 3.893 3.893h132.437c9.756 0 17.693-8.193 17.693-18.264 0-6.996-3.919-13.345-9.932-16.386-1.104 2.522-2.809 4.691-4.911 6.351 4.078 1.298 7.057 5.306 7.057 10.036 0 5.777-4.444 10.478-9.907 10.478h-132.437z" fill="#3762cc" data-original="#3762CC" class=""/></g> </svg>
